<mxfile host="app.diagrams.net" modified="2023-08-17T08:58:32.729Z" agent="Mozilla/5.0 (Windows NT 10.0; Win64; x64) AppleWebKit/537.36 (KHTML, like Gecko) Chrome/115.0.0.0 Safari/537.36 Edg/115.0.1901.203" etag="yRBG2eRjUpNCIENWVToy" version="21.6.8" type="github">
  <diagram name="第 1 页" id="qp8A2KsZwpkWe7tbFOD5">
    <mxGraphModel dx="951" dy="527" grid="1" gridSize="10" guides="1" tooltips="1" connect="1" arrows="1" fold="1" page="1" pageScale="1" pageWidth="827" pageHeight="1169" math="0" shadow="0">
      <root>
        <mxCell id="0" />
        <mxCell id="1" parent="0" />
        <mxCell id="3Yyxr4FjfP0tk_hcY1NM-6" style="edgeStyle=orthogonalEdgeStyle;rounded=0;orthogonalLoop=1;jettySize=auto;html=1;exitX=0.5;exitY=1;exitDx=0;exitDy=0;dashed=1;" edge="1" parent="1" source="3Yyxr4FjfP0tk_hcY1NM-1">
          <mxGeometry relative="1" as="geometry">
            <mxPoint x="289.6896551724137" y="500" as="targetPoint" />
          </mxGeometry>
        </mxCell>
        <mxCell id="3Yyxr4FjfP0tk_hcY1NM-1" value="ext2_create()" style="rounded=0;whiteSpace=wrap;html=1;" vertex="1" parent="1">
          <mxGeometry x="230" y="170" width="120" height="30" as="geometry" />
        </mxCell>
        <mxCell id="3Yyxr4FjfP0tk_hcY1NM-2" value="ext2_new_inode()" style="rounded=0;whiteSpace=wrap;html=1;" vertex="1" parent="1">
          <mxGeometry x="380" y="260" width="120" height="30" as="geometry" />
        </mxCell>
        <mxCell id="3Yyxr4FjfP0tk_hcY1NM-3" value="ext2_set_file_ops()" style="rounded=0;whiteSpace=wrap;html=1;" vertex="1" parent="1">
          <mxGeometry x="380" y="320" width="120" height="30" as="geometry" />
        </mxCell>
        <mxCell id="3Yyxr4FjfP0tk_hcY1NM-4" value="mark_inode_dirty()" style="rounded=0;whiteSpace=wrap;html=1;" vertex="1" parent="1">
          <mxGeometry x="380" y="380" width="120" height="30" as="geometry" />
        </mxCell>
        <mxCell id="3Yyxr4FjfP0tk_hcY1NM-5" value="ext2_add_nondir()" style="rounded=0;whiteSpace=wrap;html=1;" vertex="1" parent="1">
          <mxGeometry x="380" y="440" width="120" height="30" as="geometry" />
        </mxCell>
        <mxCell id="3Yyxr4FjfP0tk_hcY1NM-7" value="" style="edgeStyle=none;orthogonalLoop=1;jettySize=auto;html=1;rounded=0;entryX=0;entryY=0.5;entryDx=0;entryDy=0;dashed=1;" edge="1" parent="1" target="3Yyxr4FjfP0tk_hcY1NM-2">
          <mxGeometry width="80" relative="1" as="geometry">
            <mxPoint x="290" y="274.65999999999997" as="sourcePoint" />
            <mxPoint x="370" y="274.65999999999997" as="targetPoint" />
            <Array as="points" />
          </mxGeometry>
        </mxCell>
        <mxCell id="3Yyxr4FjfP0tk_hcY1NM-8" value="" style="edgeStyle=none;orthogonalLoop=1;jettySize=auto;html=1;rounded=0;entryX=0;entryY=0.5;entryDx=0;entryDy=0;dashed=1;" edge="1" parent="1">
          <mxGeometry width="80" relative="1" as="geometry">
            <mxPoint x="290" y="334.65999999999997" as="sourcePoint" />
            <mxPoint x="380" y="335" as="targetPoint" />
            <Array as="points" />
          </mxGeometry>
        </mxCell>
        <mxCell id="3Yyxr4FjfP0tk_hcY1NM-9" value="" style="edgeStyle=none;orthogonalLoop=1;jettySize=auto;html=1;rounded=0;entryX=0;entryY=0.5;entryDx=0;entryDy=0;dashed=1;" edge="1" parent="1">
          <mxGeometry width="80" relative="1" as="geometry">
            <mxPoint x="290" y="394.65999999999997" as="sourcePoint" />
            <mxPoint x="380" y="395" as="targetPoint" />
            <Array as="points" />
          </mxGeometry>
        </mxCell>
        <mxCell id="3Yyxr4FjfP0tk_hcY1NM-10" value="" style="edgeStyle=none;orthogonalLoop=1;jettySize=auto;html=1;rounded=0;entryX=0;entryY=0.5;entryDx=0;entryDy=0;dashed=1;" edge="1" parent="1">
          <mxGeometry width="80" relative="1" as="geometry">
            <mxPoint x="290" y="454.65999999999997" as="sourcePoint" />
            <mxPoint x="380" y="455" as="targetPoint" />
            <Array as="points" />
          </mxGeometry>
        </mxCell>
      </root>
    </mxGraphModel>
  </diagram>
</mxfile>
